<svg xmlns="http://www.w3.org/2000/svg" xmlns:xlink="http://www.w3.org/1999/xlink" width="512" height="512" id="beans">
  <defs>
    <path id="a" d="M.838 194.87h183.55V.927H.839z"></path>
    <path id="c" d="M163.816 3.025H7.058v149.219h156.758V3.024z"></path>
  </defs>
  <g fill="none" fill-rule="evenodd">
    <path fill="#B4814A" d="M469.46 455.812c-31.148 39.745-81.307 52.352-112.041 28.155-30.726-24.19-30.397-76.025.752-115.77 31.149-39.754 81.308-52.361 112.042-28.163 30.735 24.197 30.397 76.033-.752 115.778"></path>
    <g transform="translate(321.208 314.106)">
      <mask id="b" fill="#fff">
        <use xlink:href="#a"></use>
      </mask>
      <path fill="#2E2E30" d="M111.92 26.345c-22.873 0-47.775 13.632-64.976 35.593-26.779 34.162-28.08 78.101-2.891 97.935 7.954 6.27 18.063 9.583 29.238 9.583 22.882 0 47.784-13.641 64.985-35.602 26.779-34.17 28.08-78.092 2.9-97.927-7.963-6.27-18.08-9.582-29.255-9.582M73.29 194.874c-16.906 0-32.433-5.194-44.91-15.014C-7.797 151.367-8.414 91.431 26.995 46.24 49.225 17.864 80.975.927 111.921.927c16.914 0 32.442 5.185 44.918 15.005 36.186 28.493 36.804 88.437 1.386 133.63-22.24 28.375-53.988 45.312-84.934 45.312" mask="url(#b)"></path>
    </g>
    <path fill="#B4814A" d="M478.056 347.559s-64.107 21.046-64.242 64.443c-.101 35.153-63.117 61.587-63.117 61.587"></path>
    <path fill="#2E2E30" d="M350.713 486.297a12.69 12.69 0 0 1-11.699-7.795c-2.705-6.473.33-13.92 6.788-16.632 14.336-6.05 55.273-28.18 55.34-49.904.153-51.98 69.998-75.516 72.974-76.49 6.678-2.187 13.812 1.448 15.993 8.125 2.18 6.668-1.446 13.844-8.098 16.03-15.418 5.117-55.425 24.494-55.51 52.412-.135 42.363-63.658 70.23-70.902 73.27-1.598.67-3.263.984-4.886.984"></path>
    <path fill="#010202" d="M470.212 340.034c-4.776-3.761-10.059-6.523-15.629-8.548 9.966 26.4 3.677 61.579-18.934 90.436-26.305 33.569-66.144 47.676-96.413 36.704 3.761 9.964 9.763 18.716 18.182 25.341 30.734 24.198 80.893 11.591 112.042-28.154s31.487-91.58.752-115.779" opacity=".15"></path>
    <path fill="#B4814A" d="M139.49 478.159c-38.807 8.37-75.517-9.278-81.992-39.423-6.475-30.155 19.737-61.385 58.544-69.756 38.816-8.37 75.526 9.278 82.001 39.432 6.475 30.146-19.746 61.376-58.553 69.747"></path>
    <path fill="#2E2E30" d="M135.314 379.611c-5.486 0-11.082.602-16.602 1.796-16.035 3.457-29.965 11.438-39.22 22.461-8.479 10.108-11.894 21.53-9.595 32.18 3.965 18.537 24.666 31.483 50.32 31.483 5.486 0 11.073-.61 16.61-1.804 31.91-6.88 53.81-31.4 48.815-54.649-3.981-18.53-24.674-31.467-50.328-31.467m-15.097 113.338c-37.717 0-68.603-21.198-75.12-51.547-3.973-18.504 1.344-37.644 14.995-53.895 12.857-15.318 31.774-26.316 53.287-30.959 7.278-1.558 14.657-2.355 21.935-2.355 37.708 0 68.594 21.19 75.129 51.53 7.92 36.958-22.705 75.026-68.282 84.862-7.278 1.56-14.666 2.364-21.944 2.364"></path>
    <path fill="#B4814A" d="M199.014 416.92s-49.39-19.572-71.249 6.651c-17.7 21.241-69.135 5.49-69.135 5.49"></path>
    <path fill="#2E2E30" d="M95.072 447.376c-19.06 0-36.803-5.143-40.142-6.168-6.695-2.05-10.448-9.142-8.42-15.852 2.038-6.71 9.172-10.473 15.816-8.456 17.54 5.32 47.37 8.54 55.713-1.474 27.412-32.891 83.269-11.26 85.644-10.32 6.5 2.567 9.695 9.964 7.117 16.488-2.561 6.515-9.898 9.7-16.424 7.16-.406-.179-41.436-15.565-56.87 2.964-10.152 12.167-26.737 15.658-42.434 15.658"></path>
    <path fill="#010202" d="M198.039 408.409c-3.635-16.946-16.83-29.943-34.58-36.585.261.898.574 1.77.769 2.694 6.474 30.146-19.738 61.376-58.553 69.747-16.99 3.668-33.583 2.347-47.412-2.839 8.047 28.477 43.608 44.846 81.223 36.73 38.815-8.372 65.028-39.602 58.553-69.747" opacity=".15"></path>
    <path fill="#B4814A" d="M339.65 258.932c4.04 51.946-25.241 96.596-65.4 99.74-40.16 3.135-76-36.424-80.04-88.37-4.04-51.945 25.24-96.596 65.4-99.731 40.159-3.143 75.999 36.415 80.04 88.361"></path>
    <path fill="#2E2E30" d="M264.08 183.103c-1.15 0-2.309.042-3.483.135-15.427 1.203-29.518 10.396-39.661 25.876-10.828 16.496-15.824 37.872-14.091 60.198 3.483 44.634 32.932 79.202 66.422 76.694 33.119-2.601 57.226-41.22 53.743-86.09-3.355-43.075-30.996-76.813-62.93-76.813m5.705 188.448c-45.088 0-83.835-44.04-88.214-100.257-2.18-27.917 4.277-54.962 18.165-76.143 14.556-22.19 35.468-35.424 58.891-37.254 47.234-3.61 89.101 41.575 93.666 100.045 4.573 58.842-29.99 109.712-77.056 113.397a69.29 69.29 0 0 1-5.452.212"></path>
    <path fill="#B4814A" d="M270.8 170.79s-33.98 60.808-3.871 93.825c24.394 26.748-5.005 90.878-5.005 90.878"></path>
    <path fill="#2E2E30" d="M261.925 368.202a12.61 12.61 0 0 1-5.283-1.161c-6.365-2.923-9.154-10.464-6.238-16.844 6.695-14.674 22.383-60.316 7.168-76.999-35.882-39.347.6-105.806 2.164-108.619 3.423-6.143 11.15-8.303 17.26-4.872 6.104 3.423 8.284 11.159 4.87 17.276-8.166 14.734-25.105 57.648-5.58 79.067 29.23 32.035.533 97.4-2.84 104.747a12.677 12.677 0 0 1-11.52 7.405"></path>
    <path fill="#010202" d="M339.65 258.932c-2.917-37.466-22.41-68.4-48.106-81.6 7.734 13.666 12.908 29.925 14.294 47.71 4.04 51.945-25.24 96.596-65.4 99.74-11.191.872-22.011-1.67-31.935-6.77 14.86 26.248 39.331 42.719 65.747 40.66 40.159-3.144 69.44-47.794 65.4-99.74" opacity=".15"></path>
    <path fill="#B4814A" d="M117.908 217.446c24.242 31.094 24.411 71.568.372 90.394-24.04 18.835-63.185 8.905-87.428-22.19-24.243-31.094-24.412-71.568-.372-90.403 24.04-18.834 63.185-8.896 87.428 22.199"></path>
    <path fill="#2E2E30" d="M59.321 198.426c-8.047 0-15.325 2.364-21.03 6.838-18.495 14.488-17.346 47.04 2.544 72.56 12.916 16.555 31.537 26.84 48.604 26.84 8.047 0 15.325-2.363 21.03-6.837 8.47-6.634 13.11-17.479 13.051-30.535-.059-14.268-5.595-29.188-15.604-42.024-12.907-16.556-31.529-26.842-48.595-26.842M89.44 330.083c-25.063 0-50.709-13.684-68.578-36.602-28.512-36.568-27.692-85.125 1.809-108.246 10.21-7.999 22.881-12.226 36.651-12.226 25.063 0 50.7 13.683 68.57 36.61 13.448 17.242 20.903 37.694 20.988 57.563.084 21.097-8.013 39.092-22.797 50.675-10.211 7.998-22.882 12.226-36.643 12.226"></path>
    <path fill="#B4814A" d="M37.636 190.695s3.948 52.649 36.745 60.85c26.567 6.652 34.792 59.47 34.792 59.47"></path>
    <path fill="#2E2E30" d="M109.155 323.712c-6.129 0-11.521-4.465-12.502-10.726-2.84-17.962-12.865-45.981-25.35-49.108-41.208-10.31-46.127-69.712-46.313-72.229-.524-7.007 4.717-13.099 11.699-13.624 6.813-.55 13.06 4.702 13.583 11.7.06.594 4.125 43.728 27.176 49.49 33.76 8.447 43.279 63.578 44.25 69.84 1.074 6.93-3.642 13.42-10.565 14.496-.66.11-1.327.161-1.978.161"></path>
    <path fill="#010202" d="M117.908 217.445c-7.65-9.811-16.788-17.505-26.458-22.86 16.576 29.07 14.303 62.69-6.982 79.364-16.457 12.895-39.982 12.294-60.97.67 2.147 3.761 4.573 7.464 7.354 11.03 24.243 31.095 63.388 41.025 87.428 22.19 24.04-18.826 23.87-59.3-.372-90.394" opacity=".15"></path>
    <path fill="#B4814A" d="M161.617 122.02c-31.115 24.18-71.494 24.189-90.191.016-18.69-24.172-8.622-63.366 22.493-87.547 31.114-24.181 71.494-24.181 90.191-.017 18.69 24.172 8.622 63.367-22.493 87.547"></path>
    <g transform="translate(42.264 .619)">
      <mask id="d" fill="#fff">
        <use xlink:href="#c"></use>
      </mask>
      <path fill="#2E2E30" d="M101.412 28.442c-14.243 0-29.145 5.49-41.994 15.47C46.587 53.886 37.56 66.993 34.01 80.82c-3.246 12.64-1.412 24.29 5.182 32.806 6.576 8.515 17.37 13.2 30.396 13.2 14.243 0 29.154-5.49 41.994-15.471 25.544-19.843 34.623-51.115 20.244-69.713-6.593-8.515-17.387-13.2-30.413-13.2M69.587 152.244c-21.039 0-38.95-8.185-50.438-23.046-11.504-14.86-14.945-34.297-9.695-54.716 4.945-19.25 17.167-37.237 34.428-50.658 17.26-13.412 37.691-20.8 57.53-20.8 21.04 0 38.95 8.184 50.455 23.045 22.95 29.672 11.842 76.949-24.75 105.374-17.26 13.413-37.691 20.8-57.53 20.8" mask="url(#d)"></path>
    </g>
    <path fill="#B4814A" d="M188.622 41.666S136.087 45.41 127.77 78.25c-6.737 26.612-59.466 34.644-59.466 34.644"></path>
    <path fill="#2E2E30" d="M68.286 125.603c-6.153 0-11.546-4.5-12.502-10.786-1.065-6.93 3.686-13.412 10.592-14.488 17.937-2.77 45.941-12.7 49.102-25.206 10.448-41.262 69.728-45.956 72.247-46.134 6.94-.55 13.06 4.77 13.541 11.777.499 6.99-4.75 13.065-11.724 13.573-.668.06-43.642 3.982-49.483 27.036-8.554 33.806-63.599 43.135-69.846 44.083-.65.102-1.293.145-1.927.145"></path>
    <path fill="#010202" d="M184.106 34.475C177.69 26.18 168.688 20.8 158.409 18.2c5.123 22.919-6.255 51.005-30.607 69.933-20.43 15.878-44.826 21.258-64.487 16.285 1.42 6.371 4.049 12.361 8.115 17.614 18.697 24.173 59.077 24.164 90.183-.008 31.123-24.181 41.19-63.375 22.493-87.548" opacity=".15"></path>
    <path fill="#B4814A" d="M489.946 138.443c-9.771 39.711-42.593 65.747-73.294 58.156-30.71-7.592-47.674-45.939-37.903-85.658 9.78-39.712 42.594-65.748 73.295-58.156 30.709 7.6 47.674 45.947 37.902 85.658"></path>
    <path fill="#2E2E30" d="M441.226 64.18c-21.614 0-43.169 21.41-50.168 49.81-4.057 16.48-2.975 33.061 3.052 46.676 5.536 12.506 14.615 20.885 25.578 23.597a32.46 32.46 0 0 0 7.777.949c21.614 0 43.177-21.42 50.176-49.81 8.08-32.85-4.768-64.367-28.63-70.273a32.477 32.477 0 0 0-7.785-.949m-13.761 146.45c-4.666 0-9.324-.568-13.854-1.687-18.74-4.634-33.896-18.122-42.679-37.974-8.3-18.741-9.89-41.143-4.488-63.07 9.856-40.059 41.309-69.137 74.782-69.137 4.674 0 9.332.568 13.863 1.686 37.437 9.261 58.595 54.59 47.166 101.045-9.856 40.058-41.309 69.137-74.79 69.137"></path>
    <path fill="#B4814A" d="M460.333 55.72s-40.303 36.916-25.984 68.976c11.597 25.969-26.103 66.493-26.103 66.493"></path>
    <path fill="#2E2E30" d="M408.256 203.891a12.623 12.623 0 0 1-8.638-3.406c-5.123-4.778-5.41-12.819-.66-17.953 10.423-11.252 29.949-38.915 23.82-52.65-17.852-39.973 27.083-81.785 29.002-83.548 5.165-4.719 13.195-4.372 17.92.814 4.717 5.176 4.353 13.209-.803 17.945-.634.601-33.135 31.653-22.975 54.41 14.615 32.714-23.955 75.568-28.401 80.347a12.614 12.614 0 0 1-9.265 4.041"></path>
    <path fill="#010202" d="M453.79 53.34c5.613 14.86 6.855 32.873 2.342 51.208-9.772 39.72-42.586 65.756-73.295 58.165-.6-.153-1.15-.39-1.741-.56 6.542 17.327 19.027 30.358 35.552 34.45 30.71 7.592 63.523-18.445 73.295-58.164 9.585-38.94-6.576-76.491-36.153-85.1" opacity=".15"></path>
  </g>
</svg>
